<?xml version="1.0" encoding="UTF-8"?>
<svg xmlns="http://www.w3.org/2000/svg" width="86" height="405" viewBox="0 0 86 405"><title>  Icon</title><desc>  Created with Sketch.</desc><g fill="none"><g fill="#2A2941"><path d="M43 319C66.7 319 86 338.3 86 362 86 385.7 66.7 405 43 405 19.3 405 0 385.7 0 362 0 338.3 19.3 319 43 319ZM43 159C66.7 159 86 178.3 86 202 86 225.7 66.7 245 43 245 19.3 245 0 225.7 0 202 0 178.3 19.3 159 43 159ZM43.5 0C67 0 86 19 86 42.5 86 66 67 85 43.5 85 20 85 1 66 1 42.5 1 19 20 0 43.5 0Z"/></g></g></svg>
